<svg width="512" height="512" viewBox="0 0 512 512" fill="none" xmlns="http://www.w3.org/2000/svg">
<path d="M340 130C365.957 130 387 151.043 387 177V379C387 393.359 375.359 405 361 405H150C135.641 405 124 393.359 124 379V177C124 151.043 145.043 130 171 130H340ZM175.5 322C163.626 322 154 331.626 154 343.5C154 355.374 163.626 365 175.5 365H196.5C208.374 365 218 355.374 218 343.5C218 331.626 208.374 322 196.5 322H175.5ZM315.5 322C303.626 322 294 331.626 294 343.5C294 355.374 303.626 365 315.5 365H336.5C348.374 365 358 355.374 358 343.5C358 331.626 348.374 322 336.5 322H315.5ZM186 167C168.327 167 154 181.327 154 199V276C154 293.673 168.327 308 186 308H326C343.673 308 358 293.673 358 276V199C358 181.327 343.673 167 326 167H186Z" fill="white"/>
<path d="M398 188H407C419.703 188 430 198.297 430 211V244C430 256.703 419.703 267 407 267H398V188Z" fill="white"/>
<path d="M154 381C154 372.163 161.163 365 170 365H210C218.837 365 226 372.163 226 381V428C226 436.837 218.837 444 210 444H170C161.163 444 154 436.837 154 428V381Z" fill="white"/>
<path d="M286 381C286 372.163 293.163 365 302 365H342C350.837 365 358 372.163 358 381V428C358 436.837 350.837 444 342 444H302C293.163 444 286 436.837 286 428V381Z" fill="white"/>
<path d="M113 188H104C91.2975 188 81 198.297 81 211V244C81 256.703 91.2975 267 104 267H113V188Z" fill="white"/>
</svg>
