<svg width="512" height="512" viewBox="0 0 512 512" fill="none" xmlns="http://www.w3.org/2000/svg">
<g clip-path="url(#clip0_1_3)">
<path d="M312 130C353.421 130 387 163.579 387 205V379C387 393.359 375.359 405 361 405H150C135.641 405 124 393.359 124 379V205C124 163.579 157.579 130 199 130H312ZM184.5 317C172.626 317 163 326.626 163 338.5C163 350.374 172.626 360 184.5 360H205.5C217.374 360 227 350.374 227 338.5C227 326.626 217.374 317 205.5 317H184.5ZM305.5 317C293.626 317 284 326.626 284 338.5C284 350.374 293.626 360 305.5 360H326.5C338.374 360 348 350.374 348 338.5C348 326.626 338.374 317 326.5 317H305.5ZM214 167C185.833 167 163 189.833 163 218V262C163 276.359 174.641 288 189 288H322C336.359 288 348 276.359 348 262V218C348 189.833 325.167 167 297 167H214Z" fill="white"/>
<rect x="243" y="60" width="25" height="77" fill="white"/>
<rect x="157" y="46" width="197" height="29" rx="14.5" fill="white"/>
<rect x="141" y="552.027" width="197" height="28" transform="rotate(-77.099 141 552.027)" fill="white"/>
<rect width="197" height="28" transform="matrix(-0.223267 -0.974757 -0.974757 0.223267 371.277 552.027)" fill="white"/>
</g>
<defs>
<clipPath id="clip0_1_3">
<rect width="512" height="512" fill="white"/>
</clipPath>
</defs>
</svg>
